<?xml version="1.0" encoding="UTF-8"?> <svg xmlns="http://www.w3.org/2000/svg" width="214" height="36" viewBox="0 0 214 36" fill="none"> <path fill-rule="evenodd" clip-rule="evenodd" d="M19.0349 1.91797C23.4852 1.91797 27.5147 3.72202 30.4312 6.63853C33.3132 9.52056 35.1086 13.4892 35.1507 17.8766V17.8857L35.1512 17.9456L35.1517 18.0343L35.1507 18.1829V18.1925C35.1086 22.5799 33.3132 26.5481 30.4312 29.4301C27.5147 32.3466 23.4857 34.1506 19.0349 34.1506C14.5846 34.1506 10.5551 32.3466 7.63859 29.4301C4.72209 26.5136 2.91803 22.4841 2.91803 18.0338C2.91803 13.5835 4.72209 9.55453 7.63859 6.63802C10.5551 3.72152 14.5846 1.91797 19.0349 1.91797ZM28.298 11.1806C28.909 11.1806 29.5017 11.2612 30.0661 11.4108C28.404 9.79791 26.1375 8.80462 23.6383 8.80462C21.0894 8.80462 18.7819 9.83746 17.1122 11.5077C15.442 13.1779 14.4091 15.4854 14.4091 18.0343C14.4091 20.5832 15.442 22.8908 17.1122 24.5604C18.7824 26.2306 21.0899 27.2635 23.6383 27.2635C26.1375 27.2635 28.4045 26.2702 30.0661 24.6573C29.5023 24.8074 28.9095 24.8875 28.2985 24.8875C26.4063 24.8875 24.6925 24.1203 23.4527 22.8801C22.2125 21.6399 21.4454 19.9261 21.4454 18.0338C21.4454 16.1415 22.2125 14.4277 23.4527 13.1875C24.6919 11.9483 26.4052 11.1806 28.298 11.1806ZM31.5289 14.8034C30.7019 13.977 29.5596 13.4653 28.2975 13.4653C27.0355 13.4653 25.8931 13.977 25.0661 14.8034C24.2392 15.6304 23.7281 16.7728 23.7281 18.0348C23.7281 19.2968 24.2397 20.4392 25.0661 21.2662C25.8931 22.0927 27.0355 22.6043 28.2975 22.6043C29.5596 22.6043 30.7019 22.0927 31.5289 21.2662C32.3554 20.4392 32.867 19.2968 32.867 18.0348L32.8665 17.976C32.8513 16.7368 32.3427 15.6172 31.5289 14.8034ZM23.6378 6.52039C25.0732 6.52039 26.4468 6.78304 27.7144 7.26321C25.341 5.34862 22.3215 4.20219 19.0349 4.20219C15.2153 4.20219 11.7568 5.7507 9.25352 8.25346C6.75076 10.7562 5.20226 14.2148 5.20226 18.0343C5.20226 21.8544 6.75026 25.3124 9.25352 27.8157C11.7568 30.3184 15.2148 31.8669 19.0349 31.8669C22.322 31.8669 25.341 30.7205 27.7144 28.8054C26.4468 29.2856 25.0732 29.5482 23.6378 29.5482C20.4587 29.5482 17.5797 28.2593 15.4967 26.1759C13.4133 24.0924 12.1244 21.214 12.1244 18.0348C12.1244 14.8557 13.4133 11.9767 15.4967 9.89324C17.5797 7.80929 20.4587 6.52039 23.6378 6.52039Z" fill="#04D484"></path> <path fill-rule="evenodd" clip-rule="evenodd" d="M137.983 29.7854C135.545 29.7854 133.505 28.9655 131.864 27.3247C130.246 25.6631 129.436 23.6451 129.436 21.2706C129.436 18.8535 130.246 16.8355 131.864 15.2165C133.505 13.5763 135.544 12.7559 137.983 12.7559C139.559 12.7559 140.994 13.1336 142.289 13.8891C143.584 14.6446 144.555 15.6592 145.203 16.9324L142.192 18.6806C141.825 17.9039 141.27 17.2939 140.525 16.8512C139.78 16.4086 138.922 16.1875 137.951 16.1875C136.527 16.1875 135.329 16.6733 134.358 17.6443C133.408 18.637 132.933 19.8458 132.933 21.2701C132.933 22.6944 133.407 23.9032 134.358 24.896C135.329 25.8675 136.527 26.3527 137.951 26.3527C138.901 26.3527 139.759 26.1316 140.525 25.689C141.291 25.2468 141.868 24.6369 142.257 23.8601L145.268 25.5759C144.577 26.8709 143.579 27.8961 142.273 28.6516C140.967 29.4081 139.538 29.7854 137.983 29.7854Z" fill="#04D484"></path> <path d="M126.744 13.1777H123.247V29.3651H126.744V13.1777Z" fill="#04D484"></path> <path fill-rule="evenodd" clip-rule="evenodd" d="M126.55 10.1018C126.118 10.5333 125.6 10.7493 124.996 10.7493C124.392 10.7493 123.863 10.5333 123.41 10.1018C122.978 9.64852 122.762 9.11967 122.762 8.51528C122.762 7.91088 122.978 7.39319 123.41 6.96119C123.841 6.5079 124.37 6.28125 124.996 6.28125C125.622 6.28125 126.151 6.5079 126.583 6.96119C127.014 7.39269 127.23 7.91088 127.23 8.51528C127.23 9.11967 127.003 9.64852 126.55 10.1018Z" fill="#04D484"></path> <path fill-rule="evenodd" clip-rule="evenodd" d="M113.821 12.7578C115.655 12.7578 117.134 13.3511 118.256 14.5385C119.378 15.7255 119.939 17.3227 119.939 19.3301V29.366H116.443V19.5567C116.443 18.456 116.162 17.5925 115.601 16.9668C115.04 16.3406 114.274 16.0277 113.303 16.0277C112.202 16.0277 111.339 16.3892 110.713 17.1123C110.087 17.8353 109.774 18.8981 109.774 20.3011V29.366H106.277V19.5567C106.277 18.4342 106.013 17.5656 105.484 16.9505C104.955 16.3355 104.205 16.0277 103.234 16.0277C102.155 16.0277 101.286 16.3948 100.628 17.1285C99.9694 17.8622 99.6398 18.9199 99.6398 20.3011V29.366H96.1438V13.1792H99.6398V15.1216C100.676 13.5463 102.219 12.7583 104.27 12.7583C106.341 12.7583 107.874 13.6112 108.867 15.3158C109.925 13.6107 111.576 12.7578 113.821 12.7578Z" fill="#04D484"></path> <path d="M72.5968 6.70312H69.1002V29.3654H72.5968V6.70312Z" fill="#04D484"></path> <path fill-rule="evenodd" clip-rule="evenodd" d="M57.958 17.6462C57.958 18.1426 58.2171 18.5472 58.7348 18.8606C59.253 19.1734 60.0085 19.47 61.0007 19.7509C61.7562 19.9233 62.4144 20.1069 62.9757 20.3011C63.537 20.4953 64.1302 20.7812 64.7564 21.159C65.3826 21.5367 65.8628 22.0331 66.1969 22.6482C66.5316 23.2632 66.6877 23.9807 66.6659 24.8011C66.6659 26.3552 66.0615 27.5746 64.8533 28.4589C63.6445 29.3437 62.1446 29.7863 60.3533 29.7863C58.7561 29.7863 57.3855 29.4517 56.2416 28.7829C55.0978 28.1141 54.2667 27.1857 53.749 25.9987L56.7598 24.2504C57.2993 25.8045 58.497 26.5813 60.3533 26.5813C62.1877 26.5813 63.105 25.9769 63.105 24.7681C63.105 23.8833 62.0797 23.1927 60.0293 22.6963C59.2525 22.5022 58.5994 22.308 58.0705 22.1138C57.5417 21.9196 56.9591 21.6387 56.3223 21.2721C55.6854 20.905 55.1997 20.4197 54.8655 19.8153C54.5309 19.2109 54.3742 18.5097 54.396 17.7111C54.396 16.2219 54.9573 15.0243 56.0794 14.1177C57.2233 13.2116 58.6369 12.7578 60.3208 12.7578C61.6589 12.7578 62.8514 13.0544 63.898 13.6482C64.945 14.2414 65.7487 15.0669 66.31 16.1246L63.3641 17.7755C62.8246 16.5454 61.81 15.9304 60.3208 15.9304C59.6302 15.9304 59.0633 16.0815 58.6212 16.3837C58.1791 16.6859 57.958 17.1067 57.958 17.6462Z" fill="#04D484"></path> <path d="M50.9593 6.70312H47.2361V29.3654H50.9593V6.70312Z" fill="#04D484"></path> <path fill-rule="evenodd" clip-rule="evenodd" d="M89.0163 15.4776V13.1792H92.5129V29.3665H89.0163V27.0356C87.7001 28.8701 85.8113 29.7873 83.3507 29.7873C81.1278 29.7873 79.2284 28.9674 77.6525 27.3267C76.0771 25.6864 75.2892 23.6683 75.2892 21.2726C75.2892 18.8768 76.0771 16.8588 77.6525 15.2185C79.2284 13.5782 81.1273 12.7578 83.3507 12.7578C85.8113 12.7578 87.6996 13.6644 89.0163 15.4776ZM80.243 24.9958C81.2145 25.9668 82.4339 26.4525 83.9013 26.4525C85.3687 26.4525 86.5886 25.9668 87.5596 24.9958C88.5311 24.003 89.0163 22.7618 89.0163 21.2726C89.0163 19.7834 88.5306 18.5533 87.5596 17.5818C86.5886 16.589 85.3687 16.0926 83.9013 16.0926C82.4334 16.0926 81.2145 16.589 80.243 17.5818C79.272 18.5533 78.7863 19.7829 78.7863 21.2726C78.7857 22.74 79.2715 23.9812 80.243 24.9958Z" fill="#04D484"></path> <path fill-rule="evenodd" clip-rule="evenodd" d="M184.193 27.3247C182.553 28.965 180.535 29.7854 178.139 29.7854C175.743 29.7854 173.725 28.9655 172.085 27.3247C170.423 25.6631 169.592 23.6451 169.592 21.2706C169.592 18.8961 170.423 16.8786 172.085 15.2165C173.725 13.5763 175.743 12.7559 178.139 12.7559C180.535 12.7559 182.553 13.5757 184.193 15.2165C185.855 16.8781 186.686 18.8966 186.686 21.2706C186.686 23.6446 185.855 25.6631 184.193 27.3247ZM173.088 21.2711C173.088 22.739 173.574 23.9579 174.545 24.9294C175.516 25.9004 176.714 26.3862 178.139 26.3862C179.563 26.3862 180.761 25.9004 181.732 24.9294C182.703 23.9579 183.189 22.739 183.189 21.2711C183.189 19.8037 182.703 18.5843 181.732 17.6128C180.761 16.6413 179.563 16.1561 178.139 16.1561C176.714 16.1561 175.516 16.6418 174.545 17.6128C173.574 18.5838 173.088 19.8032 173.088 21.2711Z" fill="#04D484"></path> <path fill-rule="evenodd" clip-rule="evenodd" d="M205.021 12.7578C206.899 12.7578 208.404 13.3566 209.538 14.5548C210.671 15.7529 211.237 17.377 211.237 19.4274V29.3665H207.741V19.7834C207.741 18.5751 207.417 17.6467 206.769 16.9992C206.122 16.3517 205.237 16.0282 204.114 16.0282C202.841 16.0282 201.837 16.4222 201.104 17.2096C200.37 17.9976 200.003 19.1577 200.003 20.69V29.3665H196.506V13.1792H200.003V15.2509C201.082 13.5889 202.755 12.7578 205.021 12.7578Z" fill="#04D484"></path> <path d="M192.907 13.1777H189.411V29.3651H192.907V13.1777Z" fill="#04D484"></path> <path fill-rule="evenodd" clip-rule="evenodd" d="M192.713 10.1018C192.282 10.5333 191.763 10.7493 191.159 10.7493C190.555 10.7493 190.026 10.5333 189.572 10.1018C189.141 9.64852 188.925 9.11967 188.925 8.51528C188.925 7.91088 189.141 7.39319 189.572 6.96119C190.004 6.5079 190.533 6.28125 191.159 6.28125C191.785 6.28125 192.313 6.5079 192.745 6.96119C193.177 7.39269 193.393 7.91088 193.393 8.51528C193.393 9.11967 193.166 9.64852 192.713 10.1018Z" fill="#04D484"></path> <path fill-rule="evenodd" clip-rule="evenodd" d="M158.385 29.7866C154.975 29.7866 152.147 28.6646 149.902 26.4199C147.658 24.1321 146.536 21.3373 146.536 18.0349C146.536 14.7113 147.658 11.9271 149.902 9.68241C152.125 7.41644 154.953 6.2832 158.385 6.2832C160.435 6.2832 162.329 6.76895 164.067 7.73994C165.804 8.71143 167.159 10.0277 168.13 11.6898L164.892 13.5674C164.288 12.4453 163.409 11.5549 162.254 10.8963C161.099 10.2381 159.809 9.90906 158.385 9.90906C155.989 9.90906 154.025 10.6752 152.492 12.208C151.003 13.719 150.259 15.6615 150.259 18.0354C150.259 20.4094 151.003 22.3519 152.492 23.8629C154.025 25.3951 155.989 26.1618 158.385 26.1618C159.809 26.1618 161.104 25.8322 162.27 25.1741C163.435 24.5159 164.31 23.6256 164.892 22.5035L168.13 24.3486C167.202 25.9889 165.852 27.3163 164.083 28.3304C162.378 29.3014 160.478 29.7866 158.385 29.7866Z" fill="#04D484"></path> </svg> 